<svg xmlns="http://www.w3.org/2000/svg" class="icon icon-tabler icon-tabler-radioactive" width="250px" height="250px" viewBox="0 0 24 24" stroke-width="1.00" stroke="rgba(1, 1, 1, 1)" fill="rgba(255, 255, 255, 1)" stroke-linecap="round" stroke-linejoin="round"><rect x="0" y="0" width="100%" height="100%" stroke="none" stroke-width="0" fill="rgba(255, 153, 0, 1)" rx="5" ry="5"/><g transform="translate(2.40, 2.40) scale(0.8)"><path stroke="none" d="M0 0h24v24H0z" fill="none"/><path d="M13.5 14.6l3 5.19a9 9 0 0 0 4.5 -7.79h-6a3 3 0 0 1 -1.5 2.6"/><path d="M13.5 9.4l3 -5.19a9 9 0 0 0 -9 0l3 5.19a3 3 0 0 1 3 0"/><path d="M10.5 14.6l-3 5.19a9 9 0 0 1 -4.5 -7.79h6a3 3 0 0 0 1.5 2.6"/></g>
  
  
  
  
</svg>